<?xml version="1.0" encoding="UTF-8"?>
<svg width="16px" height="28px" viewBox="0 0 16 28" version="1.1" xmlns="http://www.w3.org/2000/svg" xmlns:xlink="http://www.w3.org/1999/xlink">
    <title>形状</title>
    <g id="页面-2" stroke="none" stroke-width="1" fill="none" fill-rule="evenodd">
        <g id="知识评审2" transform="translate(-1039.000000, -5853.000000)" fill="#1890FF" fill-rule="nonzero">
            <g id="编组-88" transform="translate(333.000000, 5169.000000)">
                <g id="笔" transform="translate(696.000000, 681.000000)">
                    <path d="M23.7848811,8.84437945 C24.0032,8.94980565 24.270576,8.86266767 24.3792552,8.6507395 L25.9538109,5.57817548 C26.0624901,5.36624731 25.9727245,5.10662634 25.7544056,5.00127186 L21.7029095,3.04479116 C21.4845906,2.93936496 21.2171407,3.02650294 21.1085354,3.23843111 L19.5339058,6.31099512 C19.4253005,6.52292329 19.5150661,6.78254427 19.7333111,6.88789875 L23.7848811,8.84437945 Z M15.7655224,25.1812085 C15.9322722,25.0085103 16.1575359,24.6938813 16.2661412,24.4819531 L23.602173,10.167012 C23.7108522,9.95508388 23.6210865,9.6954629 23.4027677,9.59010842 L19.3511976,7.63348428 C19.1328788,7.52805809 18.8655028,7.61519606 18.7568236,7.82712423 L11.4501965,22.0847622 C11.3415912,22.2966904 11.2240462,22.6616658 11.1889527,22.8958985 L10.0066322,30.7854356 C9.97153861,31.0196682 10.0792574,31.0700146 10.2460072,30.8973165 L15.7655224,25.1812085 Z" id="形状"></path>
                </g>
            </g>
        </g>
    </g>
</svg>